<svg xmlns="http://www.w3.org/2000/svg" width="288" height="140"><path d="M276.75 59.313c2.858 2.143 4.052 4.018 5.063 7.437.27 4.696-1.249 8.28-4.168 11.957-2.1 1.65-3.083 1.445-5.707 1.293-4.253.279-6.18 1.84-9.043 4.95a286.06 286.06 0 0 0-3.829 4.581C257 92 257 92 255 93c-2.86.096-5.695.13-8.555.12l-2.715.003c-3.02.001-6.04-.004-9.06-.01l-6.474.001c-5.874 0-11.748-.006-17.621-.013-6.133-.006-12.265-.006-18.398-.008-11.62-.003-23.24-.011-34.86-.021a87463.58 87463.58 0 0 0-39.678-.022C90.426 93.04 63.213 93.022 36 93l-.828 1.887C33.413 98.057 31.35 98.777 28 100c-4.05 0-5.884-.926-9.313-3.125-3.243-3.47-3.77-5.16-3.687-9.875 1.234-3.563 2.356-5.463 5.25-7.875C23.762 77.688 26.233 77.596 30 78c3.539 1.651 4.81 2.716 7 6v3c28.025.08 56.05.108 84.074.075 13.013-.014 26.025-.011 39.037.031 11.342.037 22.683.042 34.025.01 6.006-.016 12.01-.017 18.016.02 5.654.035 11.306.028 16.96-.012a404.05 404.05 0 0 1 6.221.026c10.806.44 10.806.44 20.727-3.028 3.166-3.284 4.898-5.444 5.014-10.09a97.023 97.023 0 0 0-.82-5.509C260 66 260 66 261.687 62.438c4.456-4.697 8.962-6.037 15.063-3.126ZM270 67l-1 4 3 1 1-4-3-1ZM25 87l-1 3 4 1 1-3-4-1Z" fill="#F6B384"/><path d="M199.719 22.238c7.544.202 7.544.202 11.406 3.137 2.748 3.847 3.332 5.868 2.875 10.625-3.006 5.69-3.006 5.69-6.14 6.668L206 43l-.411 2.18C198.77 81.23 198.77 81.23 197 83c-3 .142-5.998.042-9 0 .577-8.472 2.237-16.643 4-24.938l.828-3.978c2.02-9.626 2.02-9.626 3.172-13.084h-2l-2-4-147-1v-6l2.282.001c18.32.007 36.639-.019 54.958-.081 8.86-.03 17.718-.048 26.578-.04 7.721.007 15.442-.007 23.164-.046 4.089-.02 8.177-.03 12.266-.014 3.849.014 7.697 0 11.545-.035 1.413-.008 2.825-.006 4.237.008 7.299.374 7.299.374 13.849-2.153 3.95-4.872 3.95-4.872 5.84-5.402ZM202 31l-1 4 4-1-1-3h-2Z" fill="#F3B083"/><path d="m135.813 39.867 2.187.008 2.188-.008C142 40 142 40 143 41c.088 2.073.107 4.148.098 6.223l-.01 3.818-.025 4.022A3768.67 3768.67 0 0 1 143 69l2-.001 1.063-3.5c1.57-4.713 3.465-9.257 5.437-13.813l.899-2.101C155.56 42.379 155.56 42.379 158 40c2.262-.39 2.262-.39 4.688-.25l2.449.11L167 40c1.326 2.652 1.32 4.922 1.535 7.883l.264 3.535.263 3.707.276 3.73c.224 3.048.445 6.097.662 9.145l.779-1.833c1.176-2.765 2.355-5.528 3.534-8.292l1.224-2.883C181.15 41.85 181.15 41.85 183 40c2.67-.141 5.324-.042 8 0-.526 5.644-2.074 9.968-4.527 15.05l-1.058 2.243a906.668 906.668 0 0 1-2.217 4.652 1099.26 1099.26 0 0 0-3.384 7.135 3150.67 3150.67 0 0 1-2.154 4.533l-1.02 2.156c-1.337 2.776-2.444 5.035-4.64 7.231-2.602.195-2.602.195-5.625.125l-3.04-.055L161 83c-1.15-2.3-1.292-4.012-1.535-6.57l-.264-2.715-.263-2.84-.276-2.863A2341.14 2341.14 0 0 1 158 61l-.794 1.804a3268.007 3268.007 0 0 1-3.581 8.071l-1.25 2.84c-.4.896-.8 1.792-1.21 2.715-.368.827-.734 1.655-1.112 2.507C149 81 149 81 147 83c-2.566.23-2.566.23-5.563.188l-3.003-.02C136 83 136 83 135 82c-.892-5.131-1.287-10.246-1.563-15.438l-.126-2.343c-.385-7.722-.657-15.492-.311-23.219 1-1 1-1 2.813-1.133Z" fill="#F4B182"/><path d="M251 27c3.658 2.04 5.67 3.504 8 7 .44 4.555.632 6.883-1.625 10.875C255 47 255 47 251.937 47.625c-3.012 1.036-3.012 1.036-3.847 3.234-.86 3.03-1.492 6.048-2.09 9.141l-1.53 7.776a498.13 498.13 0 0 0-1.025 5.405l-.48 2.538-.418 2.279C242 80 242 80 240 83c-2.383.293-2.383.293-5.125.188l-2.758-.083L230 83c-2.933-6.192-5.233-12.438-7.337-18.946C221.51 60.457 221.51 60.457 220 57l-.443 2.28a5802.33 5802.33 0 0 1-1.994 10.157l-.698 3.588-.674 3.409-.618 3.158C215 82 215 82 214 83c-2.67.141-5.324.042-8 0-1.213-3.64-.686-5.343.145-9.066l.802-3.663.865-3.834c.55-2.48 1.097-4.96 1.645-7.44l.811-3.603c.824-3.822 1.505-7.657 2.114-11.519C213 42 213 42 216 40c2.262-.195 2.262-.195 4.688-.125l2.449.055L225 40c3.365 5.983 5.395 12.077 7.337 18.627.809 3.464.809 3.464 2.663 6.373.729-3.434 1.43-6.872 2.125-10.313l.629-2.958.566-2.842.54-2.619c.387-2.553.387-2.553-1.86-5.268-.524-3.93-.148-5.725 1.75-9.25 3.648-4.459 6.488-5.441 12.25-4.75Zm-4 9v4l3-1v-3h-3Z" fill="#F4B183"/><path d="M30 78c3.539 1.651 4.81 2.716 7 6v3h101v6H36l-2 4c-3.16 2.083-5.198 3-9 3-3.96-1.32-6.149-2.95-9-6-1.264-4.089-1.274-6.208.125-10.25C19.82 78.33 23.567 77.31 30 78Zm-5 9-1 3 4 1 1-3-4-1Z" fill="#94E5FE"/><path d="M68.375 40.188C71 42 71 42 71.938 44.5 72 47 72 47 71 50l-2.125-.438L66 49l-3.063-.625c-2.746-.35-4.357-.268-6.937.625.827 4.845 2.715 6.832 6.5 9.688l2.406 1.699C67 62 67 62 69 65c.517 5.169.33 9.04-2.55 13.457-4.15 4.417-9.755 5.768-15.638 5.98C46.597 84.24 43.462 83.573 40 81c-1-2.5-1-2.5-1-5l2-3c3.06.51 6.095 1.02 9.125 1.688 3.142.341 4.391.244 6.875-1.688.624-2.041.624-2.041 1-4l-1.863-1.39-2.45-1.86-2.425-1.828c-3.384-2.875-5.017-4.978-6.137-9.297-.178-5.153 1.515-7.936 4.688-11.875 5.526-4.421 12.014-4.866 18.562-2.563Zm30.563 11.187C101 53 101 53 103 55c.795 6.925.795 6.925-2.125 10.875C94.825 70.347 89.249 70.258 82 70l1 6c7.55-.653 7.55-.653 15-2 .84 2.353 1.084 3.684.438 6.125C96.254 82.973 94.517 83.259 91 84c-5.275.517-9.606.563-14.563-1.438C73.01 78.959 72.114 75.942 72 71c.917-7.35 3.343-13.133 9-18 5.538-3.815 11.838-4.48 17.938-1.625Zm-13.813 8C83.81 60.945 83.81 60.945 84 63l9-1v-4c-4.211-.384-4.211-.384-7.875 1.375Z" fill="#93E3FE"/><path d="M45 30h81v6H45v-6Z" fill="#90E3FE"/><path d="m129 50 1 1c-.698 6.395-.698 6.395-2 9l-2.25-.25c-2.784.038-2.784.038-4.875 1.625C116.502 67.498 115.52 75.749 114 83h-9c.394-10.973 2.576-21.325 5-32h11c2.732-1.366 4.982-1.128 8-1Z" fill="#92E3FE"/></svg>